<mxfile host="app.diagrams.net" modified="2024-04-08T05:05:09.213Z" agent="Mozilla/5.0 (Windows NT 10.0; Win64; x64) AppleWebKit/537.36 (KHTML, like Gecko) Chrome/123.0.0.0 Safari/537.36" etag="48SacUP8ksAs1irOSgjQ" version="24.2.2" type="device">
  <diagram name="第 1 页" id="clVssEegRJ2ZVkqfi9oW">
    <mxGraphModel dx="1434" dy="772" grid="1" gridSize="10" guides="1" tooltips="1" connect="1" arrows="1" fold="1" page="1" pageScale="1" pageWidth="827" pageHeight="1169" background="#B3B3B3" math="0" shadow="0">
      <root>
        <mxCell id="0" />
        <mxCell id="1" parent="0" />
        <mxCell id="3y2fYVuo8LY5kH41kYK--2" value="" style="edgeStyle=orthogonalEdgeStyle;rounded=0;orthogonalLoop=1;jettySize=auto;html=1;" parent="1" source="0T9NWGHIf5LxjQFq2oO0-1" target="3y2fYVuo8LY5kH41kYK--1" edge="1">
          <mxGeometry relative="1" as="geometry" />
        </mxCell>
        <mxCell id="3y2fYVuo8LY5kH41kYK--4" value="" style="edgeStyle=orthogonalEdgeStyle;rounded=0;orthogonalLoop=1;jettySize=auto;html=1;" parent="1" source="3y2fYVuo8LY5kH41kYK--1" target="3y2fYVuo8LY5kH41kYK--3" edge="1">
          <mxGeometry relative="1" as="geometry" />
        </mxCell>
        <mxCell id="3y2fYVuo8LY5kH41kYK--1" value="&lt;font style=&quot;font-size: 24px;&quot;&gt;盤點&lt;/font&gt;" style="whiteSpace=wrap;html=1;" parent="1" vertex="1">
          <mxGeometry x="354" y="330" width="120" height="60" as="geometry" />
        </mxCell>
        <mxCell id="3y2fYVuo8LY5kH41kYK--12" value="&lt;font style=&quot;font-size: 26px;&quot;&gt;盤點單&lt;/font&gt;" style="swimlane;whiteSpace=wrap;html=1;" parent="1" vertex="1">
          <mxGeometry x="159" y="100" width="510" height="700" as="geometry" />
        </mxCell>
        <mxCell id="3y2fYVuo8LY5kH41kYK--9" value="&lt;font style=&quot;font-size: 24px;&quot;&gt;END&lt;/font&gt;&lt;div&gt;&lt;font style=&quot;font-size: 24px;&quot;&gt;(同時間觸發處置單)&lt;/font&gt;&lt;/div&gt;" style="ellipse;whiteSpace=wrap;html=1;" parent="3y2fYVuo8LY5kH41kYK--12" vertex="1">
          <mxGeometry x="45" y="550" width="420" height="130" as="geometry" />
        </mxCell>
        <mxCell id="3y2fYVuo8LY5kH41kYK--3" value="&lt;font style=&quot;font-size: 24px;&quot;&gt;倉庫過帳&lt;/font&gt;&lt;div style=&quot;&quot;&gt;&lt;font style=&quot;font-size: 20px;&quot;&gt;由盤點過帳權限使用者，確認數量後過帳&lt;/font&gt;&lt;/div&gt;&lt;div style=&quot;&quot;&gt;&lt;font style=&quot;font-size: 20px;&quot;&gt;(如果是替換料號，注意不要轉移料號)&lt;/font&gt;&lt;/div&gt;&lt;div style=&quot;&quot;&gt;&lt;font style=&quot;font-size: 20px;&quot;&gt;(直接產生盤盈、盤虧)&lt;/font&gt;&lt;/div&gt;" style="whiteSpace=wrap;html=1;" parent="3y2fYVuo8LY5kH41kYK--12" vertex="1">
          <mxGeometry x="53" y="360" width="404" height="110" as="geometry" />
        </mxCell>
        <mxCell id="3y2fYVuo8LY5kH41kYK--10" value="" style="edgeStyle=orthogonalEdgeStyle;rounded=0;orthogonalLoop=1;jettySize=auto;html=1;" parent="3y2fYVuo8LY5kH41kYK--12" source="3y2fYVuo8LY5kH41kYK--3" target="3y2fYVuo8LY5kH41kYK--9" edge="1">
          <mxGeometry relative="1" as="geometry" />
        </mxCell>
        <mxCell id="0T9NWGHIf5LxjQFq2oO0-1" value="&lt;font style=&quot;font-size: 24px;&quot;&gt;Start&lt;/font&gt;&lt;div&gt;&lt;font style=&quot;font-size: 24px;&quot;&gt;發起人:物料管理員&lt;/font&gt;&lt;/div&gt;" style="ellipse;whiteSpace=wrap;html=1;" parent="3y2fYVuo8LY5kH41kYK--12" vertex="1">
          <mxGeometry x="139" y="50" width="232" height="90" as="geometry" />
        </mxCell>
        <mxCell id="3y2fYVuo8LY5kH41kYK--17" value="&lt;font style=&quot;font-size: 26px;&quot;&gt;處置單&lt;/font&gt;" style="swimlane;whiteSpace=wrap;html=1;startSize=23;" parent="1" vertex="1">
          <mxGeometry x="720" y="70" width="1080" height="1070" as="geometry" />
        </mxCell>
        <mxCell id="3y2fYVuo8LY5kH41kYK--23" value="" style="edgeStyle=orthogonalEdgeStyle;rounded=0;orthogonalLoop=1;jettySize=auto;html=1;" parent="3y2fYVuo8LY5kH41kYK--17" source="3y2fYVuo8LY5kH41kYK--21" target="3y2fYVuo8LY5kH41kYK--22" edge="1">
          <mxGeometry relative="1" as="geometry" />
        </mxCell>
        <mxCell id="3y2fYVuo8LY5kH41kYK--21" value="&lt;font style=&quot;font-size: 24px;&quot;&gt;Start&lt;/font&gt;" style="ellipse;whiteSpace=wrap;html=1;" parent="3y2fYVuo8LY5kH41kYK--17" vertex="1">
          <mxGeometry x="515" y="70" width="120" height="80" as="geometry" />
        </mxCell>
        <mxCell id="3y2fYVuo8LY5kH41kYK--25" value="" style="edgeStyle=orthogonalEdgeStyle;rounded=0;orthogonalLoop=1;jettySize=auto;html=1;" parent="3y2fYVuo8LY5kH41kYK--17" source="3y2fYVuo8LY5kH41kYK--22" target="3y2fYVuo8LY5kH41kYK--24" edge="1">
          <mxGeometry relative="1" as="geometry" />
        </mxCell>
        <mxCell id="3y2fYVuo8LY5kH41kYK--22" value="生產管理員給予處置建議" style="whiteSpace=wrap;html=1;fontSize=24;" parent="3y2fYVuo8LY5kH41kYK--17" vertex="1">
          <mxGeometry x="400" y="240" width="350" height="60" as="geometry" />
        </mxCell>
        <mxCell id="3y2fYVuo8LY5kH41kYK--41" value="" style="edgeStyle=orthogonalEdgeStyle;rounded=0;orthogonalLoop=1;jettySize=auto;html=1;" parent="3y2fYVuo8LY5kH41kYK--17" source="3y2fYVuo8LY5kH41kYK--24" target="3y2fYVuo8LY5kH41kYK--40" edge="1">
          <mxGeometry relative="1" as="geometry" />
        </mxCell>
        <mxCell id="3y2fYVuo8LY5kH41kYK--24" value="物料裁決者" style="whiteSpace=wrap;html=1;fontSize=24;" parent="3y2fYVuo8LY5kH41kYK--17" vertex="1">
          <mxGeometry x="400" y="380" width="350" height="60" as="geometry" />
        </mxCell>
        <mxCell id="3y2fYVuo8LY5kH41kYK--44" style="edgeStyle=orthogonalEdgeStyle;rounded=0;orthogonalLoop=1;jettySize=auto;html=1;entryX=0;entryY=0.5;entryDx=0;entryDy=0;" parent="3y2fYVuo8LY5kH41kYK--17" source="3y2fYVuo8LY5kH41kYK--26" target="3y2fYVuo8LY5kH41kYK--24" edge="1">
          <mxGeometry relative="1" as="geometry">
            <Array as="points">
              <mxPoint x="150" y="410" />
            </Array>
          </mxGeometry>
        </mxCell>
        <mxCell id="3y2fYVuo8LY5kH41kYK--26" value="詢問處理員(非關卡)&lt;div&gt;(加簽)&lt;div&gt;採購:黃惠萍&lt;br&gt;&lt;/div&gt;&lt;/div&gt;" style="whiteSpace=wrap;html=1;fontSize=24;" parent="3y2fYVuo8LY5kH41kYK--17" vertex="1">
          <mxGeometry x="40" y="509.25" width="220" height="140.5" as="geometry" />
        </mxCell>
        <mxCell id="3y2fYVuo8LY5kH41kYK--42" style="edgeStyle=orthogonalEdgeStyle;rounded=0;orthogonalLoop=1;jettySize=auto;html=1;entryX=1;entryY=0.5;entryDx=0;entryDy=0;" parent="3y2fYVuo8LY5kH41kYK--17" source="3y2fYVuo8LY5kH41kYK--40" target="3y2fYVuo8LY5kH41kYK--26" edge="1">
          <mxGeometry relative="1" as="geometry" />
        </mxCell>
        <mxCell id="3y2fYVuo8LY5kH41kYK--43" value="&lt;font style=&quot;font-size: 22px;&quot;&gt;是&lt;/font&gt;" style="edgeLabel;html=1;align=center;verticalAlign=middle;resizable=0;points=[];" parent="3y2fYVuo8LY5kH41kYK--42" vertex="1" connectable="0">
          <mxGeometry x="-0.1747" relative="1" as="geometry">
            <mxPoint as="offset" />
          </mxGeometry>
        </mxCell>
        <mxCell id="3y2fYVuo8LY5kH41kYK--46" value="" style="edgeStyle=orthogonalEdgeStyle;rounded=0;orthogonalLoop=1;jettySize=auto;html=1;" parent="3y2fYVuo8LY5kH41kYK--17" source="3y2fYVuo8LY5kH41kYK--40" target="3y2fYVuo8LY5kH41kYK--45" edge="1">
          <mxGeometry relative="1" as="geometry" />
        </mxCell>
        <mxCell id="3y2fYVuo8LY5kH41kYK--47" value="否" style="edgeLabel;html=1;align=center;verticalAlign=middle;resizable=0;points=[];" parent="3y2fYVuo8LY5kH41kYK--46" vertex="1" connectable="0">
          <mxGeometry x="0.0348" y="2" relative="1" as="geometry">
            <mxPoint as="offset" />
          </mxGeometry>
        </mxCell>
        <mxCell id="3y2fYVuo8LY5kH41kYK--48" value="&lt;font style=&quot;font-size: 22px;&quot;&gt;否&lt;/font&gt;" style="edgeLabel;html=1;align=center;verticalAlign=middle;resizable=0;points=[];" parent="3y2fYVuo8LY5kH41kYK--46" vertex="1" connectable="0">
          <mxGeometry x="0.0522" y="1" relative="1" as="geometry">
            <mxPoint as="offset" />
          </mxGeometry>
        </mxCell>
        <mxCell id="3y2fYVuo8LY5kH41kYK--40" value="是否發起疑問查詢(可駁回)" style="rhombus;whiteSpace=wrap;html=1;fontSize=24;" parent="3y2fYVuo8LY5kH41kYK--17" vertex="1">
          <mxGeometry x="413.75" y="515" width="322.5" height="130" as="geometry" />
        </mxCell>
        <mxCell id="3y2fYVuo8LY5kH41kYK--50" value="" style="edgeStyle=orthogonalEdgeStyle;rounded=0;orthogonalLoop=1;jettySize=auto;html=1;" parent="3y2fYVuo8LY5kH41kYK--17" source="3y2fYVuo8LY5kH41kYK--45" target="3y2fYVuo8LY5kH41kYK--49" edge="1">
          <mxGeometry relative="1" as="geometry" />
        </mxCell>
        <mxCell id="3y2fYVuo8LY5kH41kYK--45" value="&lt;span style=&quot;font-weight: 700;&quot;&gt;執行單執行&lt;/span&gt;" style="whiteSpace=wrap;html=1;fontSize=24;" parent="3y2fYVuo8LY5kH41kYK--17" vertex="1">
          <mxGeometry x="432.5" y="759.5" width="285" height="60" as="geometry" />
        </mxCell>
        <mxCell id="3y2fYVuo8LY5kH41kYK--49" value="結案" style="ellipse;whiteSpace=wrap;html=1;fontSize=24;" parent="3y2fYVuo8LY5kH41kYK--17" vertex="1">
          <mxGeometry x="502.18" y="889.5" width="145.63" height="140.5" as="geometry" />
        </mxCell>
        <mxCell id="3y2fYVuo8LY5kH41kYK--32" value="&lt;font style=&quot;font-size: 24px;&quot;&gt;執行單(不執行單據)&lt;/font&gt;" style="swimlane;whiteSpace=wrap;html=1;" parent="1" vertex="1">
          <mxGeometry x="1820" y="70" width="620" height="170" as="geometry" />
        </mxCell>
        <mxCell id="3y2fYVuo8LY5kH41kYK--51" value="&lt;div&gt;&lt;span style=&quot;font-family: &amp;quot;Microsoft YaHei&amp;quot;; font-weight: 700; text-align: left; white-space: pre; background-color: rgb(255, 255, 255);&quot;&gt;&lt;font style=&quot;font-size: 22px;&quot;&gt;保留&lt;/font&gt;&lt;/span&gt;&lt;br&gt;&lt;/div&gt;" style="rounded=0;whiteSpace=wrap;html=1;" parent="3y2fYVuo8LY5kH41kYK--32" vertex="1">
          <mxGeometry x="38" y="50" width="120" height="80" as="geometry" />
        </mxCell>
        <mxCell id="3y2fYVuo8LY5kH41kYK--59" value="&lt;span style=&quot;font-family: &amp;quot;Microsoft YaHei&amp;quot;; font-size: 18.667px; font-weight: 700; text-align: left; white-space: pre; background-color: rgb(255, 255, 255);&quot;&gt;開立&lt;/span&gt;&lt;span style=&quot;font-family: &amp;quot;Microsoft YaHei&amp;quot;; font-size: 18.667px; font-weight: 700; text-align: left; white-space: pre; background-color: rgb(255, 255, 255);&quot;&gt;重工單&lt;/span&gt;" style="whiteSpace=wrap;html=1;rounded=0;" parent="3y2fYVuo8LY5kH41kYK--32" vertex="1">
          <mxGeometry x="449" y="50" width="120" height="80" as="geometry" />
        </mxCell>
        <mxCell id="tRj23XvfOdMJwh_KPj4K-26" value="" style="edgeStyle=orthogonalEdgeStyle;rounded=0;orthogonalLoop=1;jettySize=auto;html=1;" parent="3y2fYVuo8LY5kH41kYK--32" source="tRj23XvfOdMJwh_KPj4K-25" target="3y2fYVuo8LY5kH41kYK--59" edge="1">
          <mxGeometry relative="1" as="geometry" />
        </mxCell>
        <mxCell id="tRj23XvfOdMJwh_KPj4K-25" value="&lt;div style=&quot;text-align: left;&quot;&gt;&lt;font face=&quot;Microsoft YaHei&quot;&gt;&lt;span style=&quot;font-size: 18.667px; white-space: pre; background-color: rgb(255, 255, 255);&quot;&gt;&lt;b&gt;重工單人員&lt;/b&gt;&lt;/span&gt;&lt;/font&gt;&lt;/div&gt;" style="whiteSpace=wrap;html=1;rounded=0;" parent="3y2fYVuo8LY5kH41kYK--32" vertex="1">
          <mxGeometry x="229" y="50" width="141" height="80" as="geometry" />
        </mxCell>
        <mxCell id="tRj23XvfOdMJwh_KPj4K-3" value="&lt;font style=&quot;font-size: 24px;&quot;&gt;執行單&lt;/font&gt;&lt;b style=&quot;font-family: &amp;quot;Microsoft YaHei&amp;quot;; font-size: 18.667px; text-align: left; white-space: pre;&quot;&gt;(獨立單據)&lt;/b&gt;" style="swimlane;whiteSpace=wrap;html=1;" parent="1" vertex="1">
          <mxGeometry x="1860" y="320" width="440" height="590" as="geometry" />
        </mxCell>
        <mxCell id="tRj23XvfOdMJwh_KPj4K-5" value="" style="edgeStyle=orthogonalEdgeStyle;rounded=0;orthogonalLoop=1;jettySize=auto;html=1;" parent="tRj23XvfOdMJwh_KPj4K-3" source="tRj23XvfOdMJwh_KPj4K-6" target="tRj23XvfOdMJwh_KPj4K-12" edge="1">
          <mxGeometry relative="1" as="geometry" />
        </mxCell>
        <mxCell id="tRj23XvfOdMJwh_KPj4K-6" value="&lt;div&gt;&lt;span style=&quot;font-family: &amp;quot;Microsoft YaHei&amp;quot;; font-size: 18.667px; font-weight: 700; text-align: left; white-space: pre; background-color: rgb(255, 255, 255);&quot;&gt;報廢&lt;/span&gt;&lt;/div&gt;" style="rounded=0;whiteSpace=wrap;html=1;" parent="tRj23XvfOdMJwh_KPj4K-3" vertex="1">
          <mxGeometry x="175" y="45" width="120" height="80" as="geometry" />
        </mxCell>
        <mxCell id="tRj23XvfOdMJwh_KPj4K-11" value="" style="edgeStyle=orthogonalEdgeStyle;rounded=0;orthogonalLoop=1;jettySize=auto;html=1;" parent="tRj23XvfOdMJwh_KPj4K-3" source="tRj23XvfOdMJwh_KPj4K-12" target="tRj23XvfOdMJwh_KPj4K-20" edge="1">
          <mxGeometry relative="1" as="geometry" />
        </mxCell>
        <mxCell id="tRj23XvfOdMJwh_KPj4K-12" value="&lt;div&gt;&lt;span style=&quot;font-family: &amp;quot;Microsoft YaHei&amp;quot;; font-size: 18.667px; font-weight: 700; text-align: left; white-space: pre; background-color: rgb(255, 255, 255);&quot;&gt;開立報廢單&lt;/span&gt;&lt;br&gt;&lt;/div&gt;" style="rounded=0;whiteSpace=wrap;html=1;" parent="tRj23XvfOdMJwh_KPj4K-3" vertex="1">
          <mxGeometry x="175" y="180" width="120" height="80" as="geometry" />
        </mxCell>
        <mxCell id="tRj23XvfOdMJwh_KPj4K-32" value="" style="edgeStyle=orthogonalEdgeStyle;rounded=0;orthogonalLoop=1;jettySize=auto;html=1;" parent="tRj23XvfOdMJwh_KPj4K-3" source="tRj23XvfOdMJwh_KPj4K-20" target="tRj23XvfOdMJwh_KPj4K-31" edge="1">
          <mxGeometry relative="1" as="geometry" />
        </mxCell>
        <mxCell id="tRj23XvfOdMJwh_KPj4K-20" value="&lt;div&gt;&lt;span style=&quot;font-family: &amp;quot;Microsoft YaHei&amp;quot;; font-size: 18.667px; font-weight: 700; text-align: left; white-space: pre; background-color: rgb(255, 255, 255);&quot;&gt;業務通知&lt;/span&gt;&lt;br&gt;&lt;/div&gt;&lt;div&gt;&lt;span style=&quot;font-family: &amp;quot;Microsoft YaHei&amp;quot;; font-size: 18.667px; font-weight: 700; text-align: left; white-space: pre; background-color: rgb(255, 255, 255);&quot;&gt;(移除DM和相關通路商品)&lt;/span&gt;&lt;/div&gt;" style="rounded=0;whiteSpace=wrap;html=1;" parent="tRj23XvfOdMJwh_KPj4K-3" vertex="1">
          <mxGeometry x="75" y="315" width="320" height="110" as="geometry" />
        </mxCell>
        <mxCell id="tRj23XvfOdMJwh_KPj4K-31" value="END" style="ellipse;whiteSpace=wrap;html=1;rounded=0;" parent="tRj23XvfOdMJwh_KPj4K-3" vertex="1">
          <mxGeometry x="195" y="485" width="80" height="80" as="geometry" />
        </mxCell>
        <mxCell id="tRj23XvfOdMJwh_KPj4K-23" value="調撥單" style="swimlane;whiteSpace=wrap;html=1;" parent="1" vertex="1">
          <mxGeometry x="1860" y="940" width="370" height="660" as="geometry" />
        </mxCell>
        <mxCell id="tRj23XvfOdMJwh_KPj4K-16" value="" style="edgeStyle=orthogonalEdgeStyle;rounded=0;orthogonalLoop=1;jettySize=auto;html=1;" parent="tRj23XvfOdMJwh_KPj4K-23" source="tRj23XvfOdMJwh_KPj4K-17" target="tRj23XvfOdMJwh_KPj4K-19" edge="1">
          <mxGeometry relative="1" as="geometry" />
        </mxCell>
        <mxCell id="tRj23XvfOdMJwh_KPj4K-17" value="&lt;div style=&quot;text-align: left;&quot;&gt;&lt;font face=&quot;Microsoft YaHei&quot;&gt;&lt;span style=&quot;font-size: 18.667px; white-space: pre; background-color: rgb(255, 255, 255);&quot;&gt;&lt;b&gt;選擇料號&lt;/b&gt;&lt;/span&gt;&lt;/font&gt;&lt;/div&gt;" style="rounded=0;whiteSpace=wrap;html=1;" parent="tRj23XvfOdMJwh_KPj4K-23" vertex="1">
          <mxGeometry x="125" y="50" width="120" height="66" as="geometry" />
        </mxCell>
        <mxCell id="tRj23XvfOdMJwh_KPj4K-37" value="" style="edgeStyle=orthogonalEdgeStyle;rounded=0;orthogonalLoop=1;jettySize=auto;html=1;" parent="tRj23XvfOdMJwh_KPj4K-23" source="tRj23XvfOdMJwh_KPj4K-19" target="tRj23XvfOdMJwh_KPj4K-36" edge="1">
          <mxGeometry relative="1" as="geometry" />
        </mxCell>
        <mxCell id="tRj23XvfOdMJwh_KPj4K-19" value="&lt;div style=&quot;text-align: left;&quot;&gt;&lt;font face=&quot;Microsoft YaHei&quot;&gt;&lt;span style=&quot;font-size: 18.667px; white-space: pre; background-color: rgb(255, 255, 255);&quot;&gt;&lt;b&gt;指定倉庫&lt;/b&gt;&lt;/span&gt;&lt;/font&gt;&lt;/div&gt;" style="rounded=0;whiteSpace=wrap;html=1;" parent="tRj23XvfOdMJwh_KPj4K-23" vertex="1">
          <mxGeometry x="125" y="160" width="120" height="80" as="geometry" />
        </mxCell>
        <mxCell id="tRj23XvfOdMJwh_KPj4K-34" value="" style="edgeStyle=orthogonalEdgeStyle;rounded=0;orthogonalLoop=1;jettySize=auto;html=1;" parent="tRj23XvfOdMJwh_KPj4K-23" source="tRj23XvfOdMJwh_KPj4K-22" target="tRj23XvfOdMJwh_KPj4K-28" edge="1">
          <mxGeometry relative="1" as="geometry" />
        </mxCell>
        <mxCell id="tRj23XvfOdMJwh_KPj4K-22" value="&lt;div style=&quot;text-align: left;&quot;&gt;&lt;b style=&quot;font-family: &amp;quot;Microsoft YaHei&amp;quot;; font-size: 18.667px; white-space: pre;&quot;&gt;紀錄IO單&lt;/b&gt;&lt;br&gt;&lt;/div&gt;" style="rounded=0;whiteSpace=wrap;html=1;" parent="tRj23XvfOdMJwh_KPj4K-23" vertex="1">
          <mxGeometry x="125" y="410" width="120" height="80" as="geometry" />
        </mxCell>
        <mxCell id="tRj23XvfOdMJwh_KPj4K-28" value="END" style="ellipse;whiteSpace=wrap;html=1;rounded=0;" parent="tRj23XvfOdMJwh_KPj4K-23" vertex="1">
          <mxGeometry x="145" y="540" width="80" height="80" as="geometry" />
        </mxCell>
        <mxCell id="tRj23XvfOdMJwh_KPj4K-38" value="" style="edgeStyle=orthogonalEdgeStyle;rounded=0;orthogonalLoop=1;jettySize=auto;html=1;" parent="tRj23XvfOdMJwh_KPj4K-23" source="tRj23XvfOdMJwh_KPj4K-36" target="tRj23XvfOdMJwh_KPj4K-22" edge="1">
          <mxGeometry relative="1" as="geometry" />
        </mxCell>
        <mxCell id="tRj23XvfOdMJwh_KPj4K-36" value="START" style="ellipse;whiteSpace=wrap;html=1;rounded=0;" parent="tRj23XvfOdMJwh_KPj4K-23" vertex="1">
          <mxGeometry x="145" y="280" width="80" height="80" as="geometry" />
        </mxCell>
      </root>
    </mxGraphModel>
  </diagram>
</mxfile>
